<svg width="26" height="22" viewBox="0 0 26 22" fill="none" xmlns="http://www.w3.org/2000/svg">
<path d="M24.9859 5.77698C24.6641 6.09146 24.282 6.34078 23.8613 6.51064C23.4406 6.6805 22.9896 6.76753 22.5344 6.76676C22.2555 6.76676 21.9775 6.73415 21.7065 6.66961L18.8216 11.9005C18.8543 11.9301 18.8871 11.9597 18.9189 11.9907C19.3773 12.4384 19.698 13.0026 19.8445 13.6193C19.9909 14.236 19.9573 14.8805 19.7475 15.4795C19.5376 16.0785 19.1599 16.608 18.6572 17.0079C18.1546 17.4078 17.5471 17.6621 16.9039 17.7418C16.2606 17.8215 15.6074 17.7236 15.0183 17.459C14.4293 17.1944 13.928 16.7739 13.5715 16.2451C13.2149 15.7163 13.0174 15.1005 13.0014 14.4677C12.9854 13.8348 13.1514 13.2102 13.4807 12.6649L11.2947 10.5306C10.5138 10.9776 9.58535 11.1103 8.70596 10.9006L5.821 16.1315C5.85374 16.1611 5.88645 16.1907 5.91826 16.2217C6.40312 16.6951 6.73332 17.2982 6.86711 17.9548C7.00089 18.6113 6.93225 19.2919 6.66987 19.9104C6.40748 20.5289 5.96314 21.0576 5.39302 21.4295C4.82291 21.8015 4.15263 22 3.46695 22C2.78126 22 2.11098 21.8015 1.54084 21.4296C0.970712 21.0577 0.526343 20.5291 0.26393 19.9106C0.00151747 19.2921 -0.0671535 18.6115 0.0666015 17.9549C0.200356 17.2983 0.53053 16.6952 1.01537 16.2218C1.43726 15.8103 1.96075 15.5119 2.53518 15.3555C3.10961 15.1992 3.71563 15.1901 4.29472 15.3291L7.17962 10.0983C7.1469 10.0687 7.11417 10.0391 7.08236 10.0081C6.43318 9.37278 6.0686 8.51204 6.06859 7.61466C6.06858 6.71728 6.43315 5.85653 7.08231 5.22124C7.67903 4.63873 8.4729 4.28857 9.31505 4.23659C10.1572 4.18462 10.9898 4.43428 11.6569 4.9388C12.324 5.44331 12.7798 6.16804 12.9388 6.97714C13.0977 7.78625 12.949 8.62418 12.5205 9.3339L14.7064 11.4681C15.4873 11.0207 16.4159 10.888 17.2953 11.0981L20.1802 5.86732C20.1475 5.83772 20.1148 5.80813 20.083 5.77709C19.4338 5.14182 19.0692 4.28108 19.0692 3.38369C19.0692 2.48631 19.4337 1.62556 20.0829 0.990276C20.7332 0.356037 21.6149 -0.000225706 22.534 1.07282e-07C23.4532 0.000225921 24.3346 0.356816 24.9846 0.991374C25.6345 1.62593 25.9998 2.48651 26 3.38392C26.0002 4.28132 25.6355 5.14209 24.9859 5.77698Z" fill="white"/>
</svg>
