<svg width="18" height="18" viewBox="0 0 18 18" fill="none" xmlns="http://www.w3.org/2000/svg">
  <path
    d="M16.3148 9.17801C15.3838 9.17801 14.6295 9.93232 14.6295 10.8633C14.6295 11.0787 14.674 11.2834 14.7477 11.4724L12.4476 13.48C12.2029 13.3416 11.9244 13.2561 11.623 13.2561C11.2213 13.2561 10.858 13.4024 10.5683 13.6364L6.73821 11.2266C6.76411 11.109 6.77983 10.9881 6.77983 10.8632C6.77983 9.93229 6.02552 9.17798 5.09459 9.17798C4.16366 9.17798 3.40935 9.93229 3.40935 10.8632C3.40935 11.1833 3.50383 11.4797 3.65852 11.7345L2.28883 13.3725C2.10097 13.3 1.899 13.2567 1.68528 13.2567C0.75431 13.2562 0 14.011 0 14.9414C0 15.8723 0.75431 16.6266 1.68524 16.6266C2.61617 16.6266 3.37048 15.8723 3.37048 14.9414C3.37048 14.6359 3.28272 14.3536 3.14096 14.1066L4.53089 12.445C4.70807 12.508 4.89538 12.5485 5.09451 12.5485C5.49051 12.5485 5.84996 12.4062 6.13738 12.1778L9.97476 14.5921C9.95113 14.7052 9.93762 14.8216 9.93762 14.9414C9.93762 15.8723 10.6919 16.6266 11.6229 16.6266C12.5538 16.6266 13.3081 15.8723 13.3081 14.9414C13.3081 14.7237 13.2636 14.5173 13.1883 14.326L15.485 12.3218C15.7308 12.4619 16.0114 12.5485 16.3146 12.5485C17.2456 12.5485 17.9999 11.7942 17.9999 10.8633C18 9.93291 17.2457 9.17801 16.3148 9.17801Z"
    fill="#575757" />
  <path
    d="M16.3148 1.37329C15.3838 1.37329 14.6295 2.1276 14.6295 3.05853C14.6295 3.27398 14.674 3.4787 14.7477 3.6677L12.4476 5.67525C12.2029 5.53687 11.9244 5.45139 11.623 5.45139C11.2213 5.45139 10.858 5.59763 10.5683 5.83163L6.73817 3.42191C6.76407 3.30436 6.77979 3.18339 6.77979 3.05853C6.77979 2.1276 6.02548 1.37329 5.09455 1.37329C4.16362 1.37329 3.40931 2.12756 3.40931 3.05853C3.40931 3.3786 3.50379 3.67505 3.65848 3.92984L2.28879 5.56784C2.10093 5.49529 1.89841 5.45139 1.68524 5.45139C0.75431 5.45139 0 6.20625 0 7.13722C0 8.06815 0.75431 8.82246 1.68524 8.82246C2.61617 8.82246 3.37048 8.06815 3.37048 7.13722C3.37048 6.83177 3.28272 6.54939 3.14096 6.30246L4.53089 4.64084C4.70807 4.70329 4.89596 4.74432 5.09451 4.74432C5.49051 4.74432 5.84996 4.60201 6.13738 4.37363L9.97476 6.78787C9.95113 6.90094 9.93762 7.01736 9.93762 7.13719C9.93762 8.06812 10.6919 8.82243 11.6229 8.82243C12.5538 8.82243 13.3081 8.06812 13.3081 7.13719C13.3081 6.9195 13.2636 6.71305 13.1883 6.5218L15.485 4.5176C15.7308 4.65767 16.0114 4.74429 16.3146 4.74429C17.2456 4.74429 17.9999 3.98943 17.9999 3.05905C18 2.12815 17.2457 1.37329 16.3148 1.37329Z"
    fill="#575757" />
</svg>