<svg width="9" height="9" viewBox="0 0 9 9" fill="none" xmlns="http://www.w3.org/2000/svg">
<path d="M8.15273 1.84122L6.71881 0.407305C6.53167 0.231517 6.28644 0.130652 6.02977 0.123898C5.77309 0.117143 5.5229 0.20497 5.32676 0.370672L0.616813 5.08062C0.447655 5.25121 0.34233 5.47479 0.318516 5.71385L0.0934852 7.89612C0.0864355 7.97277 0.0963815 8.05004 0.122614 8.1224C0.148847 8.19477 0.190721 8.26046 0.24525 8.31479C0.29415 8.36329 0.352143 8.40166 0.415904 8.42771C0.479665 8.45375 0.54794 8.46695 0.616813 8.46655H0.663913L2.84619 8.26769C3.08524 8.24387 3.30883 8.13855 3.47942 7.96939L8.18937 3.25944C8.37217 3.06632 8.47097 2.8086 8.4641 2.54276C8.45723 2.27693 8.34527 2.02465 8.15273 1.84122ZM2.75199 7.22103L1.18201 7.36756L1.32331 5.79758L4.28011 2.87741L5.69309 4.2904L2.75199 7.22103ZM6.37342 3.58914L4.9709 2.18662L5.99139 1.13996L7.42007 2.56865L6.37342 3.58914Z" fill="#575757"/>
</svg>
