<svg width="9" height="9" viewBox="0 0 9 9" fill="none" xmlns="http://www.w3.org/2000/svg">
<g clip-path="url(#clip0_1603_1326)">
<path d="M8.71873 4.81249C8.44613 4.81249 8.18749 5.03914 8.18749 5.34373V8.18747H0.812509V0.812509H3.65625C3.94366 0.812509 4.18749 0.568679 4.18749 0.281266C4.18749 0.127595 4.11614 -0.00424979 4.02453 -0.0939733C3.93365 -0.182993 3.80305 -0.25 3.65625 -0.25H0.562509C0.113645 -0.25 -0.25 0.113645 -0.25 0.562509V8.43749C-0.25 8.88633 0.113638 9.25 0.562509 9.25H8.43749C8.88633 9.25 9.25 8.88636 9.25 8.43749V5.33952C9.25 5.04732 9.02553 4.81249 8.71873 4.81249Z" fill="#575757" stroke="#575757" stroke-width="0.5"/>
<path d="M6.16736 1.5832H6.82931L4.45941 5.12807L7.4168 2.17067V2.83264C7.4168 3.06269 7.60339 3.24924 7.8334 3.24924C8.06343 3.24924 8.25 3.06267 8.25 2.83264V1.16664C8.25 1.16663 8.25 1.16661 8.25 1.1666C8.25001 0.938865 8.06108 0.75 7.8334 0.75H6.16736C5.9373 0.75 5.75075 0.936586 5.75075 1.1666C5.75075 1.39663 5.93733 1.5832 6.16736 1.5832Z" fill="#575757" stroke="#575757" stroke-width="0.5"/>
</g>
<defs>
<clipPath id="clip0_1603_1326">
<rect width="9" height="9" fill="white"/>
</clipPath>
</defs>
</svg>
