<svg width="11" height="8" viewBox="0 0 11 8" fill="none" xmlns="http://www.w3.org/2000/svg">
<path d="M1.19692 3.11792H10.1516C10.4434 3.11792 10.68 3.35449 10.68 3.6463V3.70192C10.68 3.99374 10.4434 4.23031 10.1516 4.23031H1.19692C0.905104 4.23031 0.668538 3.99374 0.668538 3.70192V3.6463C0.668538 3.35449 0.905104 3.11792 1.19692 3.11792Z" fill="#575757"/>
<path d="M1.19692 5.89893H10.1516C10.4434 5.89893 10.68 6.13549 10.68 6.42731V6.48293C10.68 6.77475 10.4434 7.01131 10.1516 7.01131H1.19692C0.905104 7.01131 0.668538 6.77475 0.668538 6.48293V6.42731C0.668538 6.13549 0.905104 5.89893 1.19692 5.89893Z" fill="#575757"/>
<path d="M1.19685 0.337158H10.1516C10.4434 0.337158 10.6799 0.573723 10.6799 0.865541V0.921161C10.6799 1.21298 10.4434 1.44954 10.1516 1.44954H1.19685C0.905027 1.44954 0.668462 1.21298 0.668462 0.921161V0.865541C0.668462 0.573723 0.905027 0.337158 1.19685 0.337158Z" fill="#575757"/>
</svg>
