<svg width="14" height="16" viewBox="0 0 14 16" fill="none" xmlns="http://www.w3.org/2000/svg">
<g clip-path="url(#clip0_1606_1262)">
<path d="M12.4444 2.66675H1.55556C1.34928 2.66675 1.15145 2.7604 1.00558 2.9271C0.859723 3.0938 0.777779 3.31989 0.777779 3.55564V12.4445C0.777779 12.6803 0.859723 12.9064 1.00558 13.0731C1.15145 13.2398 1.34928 13.3334 1.55556 13.3334H12.4444C12.6507 13.3334 12.8486 13.2398 12.9944 13.0731C13.1403 12.9064 13.2222 12.6803 13.2222 12.4445V3.55564C13.2222 3.31989 13.1403 3.0938 12.9944 2.9271C12.8486 2.7604 12.6507 2.66675 12.4444 2.66675V2.66675ZM12.4444 12.4445H1.55556V3.55564H12.4444V12.4445Z" fill="#575757"/>
<path d="M3.5 6.22214H10.5C10.6031 6.22214 10.7021 6.17532 10.775 6.09197C10.8479 6.00862 10.8889 5.89557 10.8889 5.7777C10.8889 5.65982 10.8479 5.54678 10.775 5.46343C10.7021 5.38008 10.6031 5.33325 10.5 5.33325H3.5C3.39686 5.33325 3.29794 5.38008 3.22501 5.46343C3.15208 5.54678 3.11111 5.65982 3.11111 5.7777C3.11111 5.89557 3.15208 6.00862 3.22501 6.09197C3.29794 6.17532 3.39686 6.22214 3.5 6.22214V6.22214Z" fill="#575757"/>
<path d="M3.5 7.99997H10.5C10.6031 7.99997 10.7021 7.95315 10.775 7.8698C10.8479 7.78645 10.8889 7.6734 10.8889 7.55553C10.8889 7.43765 10.8479 7.32461 10.775 7.24126C10.7021 7.15791 10.6031 7.11108 10.5 7.11108H3.5C3.39686 7.11108 3.29794 7.15791 3.22501 7.24126C3.15208 7.32461 3.11111 7.43765 3.11111 7.55553C3.11111 7.6734 3.15208 7.78645 3.22501 7.8698C3.29794 7.95315 3.39686 7.99997 3.5 7.99997V7.99997Z" fill="#575757"/>
<path d="M3.5 9.7778H7.38889C7.49203 9.7778 7.59094 9.73098 7.66387 9.64763C7.7368 9.56428 7.77778 9.45123 7.77778 9.33336C7.77778 9.21549 7.7368 9.10244 7.66387 9.01909C7.59094 8.93574 7.49203 8.88892 7.38889 8.88892H3.5C3.39686 8.88892 3.29794 8.93574 3.22501 9.01909C3.15208 9.10244 3.11111 9.21549 3.11111 9.33336C3.11111 9.45123 3.15208 9.56428 3.22501 9.64763C3.29794 9.73098 3.39686 9.7778 3.5 9.7778V9.7778Z" fill="#575757"/>
</g>
<defs>
<clipPath id="clip0_1606_1262">
<rect width="14" height="16" fill="white"/>
</clipPath>
</defs>
</svg>
