<svg width="13" height="13" viewBox="0 0 13 13" fill="none" xmlns="http://www.w3.org/2000/svg">
<g clip-path="url(#clip0_1603_1256)">
<path d="M11.4521 1.54642C10.4547 0.550048 9.12706 0 7.71757 0C6.30808 0 4.9804 0.550048 3.97991 1.54642C2.98257 2.5428 2.43199 3.8692 2.43199 5.28046C2.43199 6.41199 2.78437 7.48694 3.44192 8.38274L0 11.8213L1.17982 13L4.62488 9.55827C5.51839 10.2058 6.59124 10.5578 7.71757 10.5578C9.1302 10.5578 10.4547 10.0077 11.4552 9.01136C12.4526 8.01499 13.0031 6.68859 13.0031 5.27732C13 3.8692 12.4526 2.5428 11.4521 1.54642ZM10.7851 8.34502C9.96394 9.16538 8.87536 9.61485 7.71757 9.61485C6.55978 9.61485 5.46805 9.16538 4.65005 8.34502C3.8289 7.52466 3.37899 6.43714 3.37899 5.28046C3.37899 4.12379 3.8289 3.03312 4.65005 2.21591C5.46805 1.39241 6.55663 0.94294 7.71757 0.94294C8.87851 0.94294 9.96708 1.39241 10.7851 2.21277C11.6062 3.03312 12.0561 4.12065 12.0561 5.27732C12.0561 6.43399 11.6062 7.52466 10.7851 8.34502Z" fill="#575757"/>
<path d="M8.3531 3.052H7.12609V4.68643H5.49008V5.91225H7.12609V7.54668H8.3531V5.91225H9.98911V4.68643H8.3531V3.052Z" fill="#575757"/>
</g>
<defs>
<clipPath id="clip0_1603_1256">
<rect width="13" height="13" fill="white"/>
</clipPath>
</defs>
</svg>
