<svg width="93" height="43" viewBox="0 0 93 43" fill="none" xmlns="http://www.w3.org/2000/svg">
<path fill-rule="evenodd" clip-rule="evenodd" d="M32.1617 28.5231C31.434 29.1468 30.7385 29.8062 30.078 30.4988C28.6631 31.6787 26.9969 32.5293 25.2031 32.9874C23.4093 33.4456 21.5338 33.4995 19.716 33.1453C17.8981 32.7911 16.1846 32.0377 14.7023 30.9412C13.2201 29.8447 12.0072 28.4331 11.1537 26.8112C10.1886 24.8855 9.77174 22.7376 9.94772 20.5966C10.1237 18.4557 10.8859 16.402 12.153 14.6548C13.42 12.9076 15.1445 11.5325 17.1421 10.6761C19.1398 9.81984 21.3357 9.51449 23.4956 9.7927C28.8767 10.4479 31.0612 13.4905 33.5398 15.9003L50.0059 31.6226C52.5743 34.4233 55.3882 36.9952 58.4149 39.3083C61.0731 41.0471 64.0766 42.2073 67.2252 42.7116C70.3738 43.2159 73.5953 43.0528 76.675 42.2331C79.7546 41.4133 82.6218 39.9558 85.0854 37.9577C87.549 35.9595 89.5525 33.4665 90.9624 30.6449C92.3163 27.7838 93.012 24.6629 92.9998 21.5057C92.9877 18.3485 92.2678 15.2329 90.8919 12.3821C89.516 9.53124 87.518 7.01558 85.041 5.01517C82.5639 3.01476 79.6691 1.57907 76.5636 0.810856C61.8562 -2.78756 54.5765 7.41539 53.365 8.06652C55.5636 10.4686 57.9272 12.7187 60.439 14.8009C61.2716 14.2502 62.0144 13.5779 62.642 12.8069C64.0094 11.5959 65.6364 10.7048 67.4016 10.2001C69.1669 9.69533 71.0249 9.58994 72.8372 9.89176C74.6495 10.1936 76.3694 10.8948 77.8687 11.9433C79.3679 12.9917 80.6079 14.3602 81.4963 15.9469C86.2993 24.5272 78.9456 34.0242 69.7941 33.3548C67.0995 33.1494 64.5488 32.0736 62.537 30.294C62.1667 29.9471 61.8418 29.7219 61.4859 29.3852L36.1439 4.88595C35.821 4.63849 35.3212 4.33828 34.9633 4.09487C31.4248 1.58581 27.2124 0.165749 22.8568 0.0136424C18.5013 -0.138464 14.1975 0.984192 10.488 3.24013C6.77836 5.49607 3.8289 8.78434 2.01133 12.6905C0.193767 16.5967 -0.410615 20.9461 0.274375 25.1904C0.977355 29.0995 2.76259 32.7409 5.43289 35.712C8.10319 38.6832 11.5546 40.8684 15.4055 42.0263C20.0364 43.3987 24.9852 43.3186 29.5679 41.7971C36.0432 39.4137 36.9297 36.9107 39.2068 35.4867C38.7831 34.7423 33.0503 29.2615 32.172 28.5313L32.1617 28.5231Z" fill="url(#paint0_linear_1391_7195)"/>
<defs>
<linearGradient id="paint0_linear_1391_7195" x1="46.5" y1="0" x2="46.5" y2="43" gradientUnits="userSpaceOnUse">
<stop stop-color="#4E46DC"/>
<stop offset="1" stop-color="#407BFF"/>
</linearGradient>
</defs>
</svg>
