<svg width="20" height="25" viewBox="0 0 20 25" fill="none" xmlns="http://www.w3.org/2000/svg">
<path d="M18.8531 0.357178H1.32444C1.03161 0.357178 0.793945 0.594839 0.793945 0.887673V24.1838C0.793945 24.4767 1.03161 24.7143 1.32444 24.7143H6.46361C6.75644 24.7143 6.9941 24.4767 6.9941 24.1838V19.9627H13.1831V24.1838C13.1831 24.4767 13.4208 24.7143 13.7136 24.7143H18.8528C19.1456 24.7143 19.3833 24.4767 19.3833 24.1838V0.887673C19.3835 0.594574 19.1456 0.357178 18.8531 0.357178ZM6.66254 16.006C6.66254 16.2259 6.48456 16.4039 6.26467 16.4039H3.89946C3.67957 16.4039 3.50159 16.2259 3.50159 16.006V13.6408C3.50159 13.4209 3.67957 13.2429 3.89946 13.2429H6.26467C6.48456 13.2429 6.66254 13.4209 6.66254 13.6408V16.006ZM6.66254 10.9994C6.66254 11.2193 6.48456 11.3973 6.26467 11.3973H3.89946C3.67957 11.3973 3.50159 11.2193 3.50159 10.9994V8.63422C3.50159 8.41433 3.67957 8.23635 3.89946 8.23635H6.26467C6.48456 8.23635 6.66254 8.41433 6.66254 8.63422V10.9994ZM6.66254 5.99289C6.66254 6.21278 6.48456 6.39076 6.26467 6.39076H3.89946C3.67957 6.39076 3.50159 6.21278 3.50159 5.99289V3.62768C3.50159 3.40779 3.67957 3.22981 3.89946 3.22981H6.26467C6.48456 3.22981 6.66254 3.40779 6.66254 3.62768V5.99289ZM11.6691 16.006C11.6691 16.2259 11.4911 16.4039 11.2712 16.4039H8.90601C8.68612 16.4039 8.50814 16.2259 8.50814 16.006V13.6408C8.50814 13.4209 8.68612 13.2429 8.90601 13.2429H11.2712C11.4911 13.2429 11.6691 13.4209 11.6691 13.6408V16.006ZM11.6691 10.9994C11.6691 11.2193 11.4911 11.3973 11.2712 11.3973H8.90601C8.68612 11.3973 8.50814 11.2193 8.50814 10.9994V8.63422C8.50814 8.41433 8.68612 8.23635 8.90601 8.23635H11.2712C11.4911 8.23635 11.6691 8.41433 11.6691 8.63422V10.9994ZM11.6691 5.99289C11.6691 6.21278 11.4911 6.39076 11.2712 6.39076H8.90601C8.68612 6.39076 8.50814 6.21278 8.50814 5.99289V3.62768C8.50814 3.40779 8.68612 3.22981 8.90601 3.22981H11.2712C11.4911 3.22981 11.6691 3.40779 11.6691 3.62768V5.99289ZM16.6756 16.006C16.6756 16.2259 16.4977 16.4039 16.2778 16.4039H13.9126C13.6927 16.4039 13.5147 16.2259 13.5147 16.006V13.6408C13.5147 13.4209 13.6927 13.2429 13.9126 13.2429H16.2778C16.4977 13.2429 16.6756 13.4209 16.6756 13.6408V16.006ZM16.6756 10.9994C16.6756 11.2193 16.4977 11.3973 16.2778 11.3973H13.9126C13.6927 11.3973 13.5147 11.2193 13.5147 10.9994V8.63422C13.5147 8.41433 13.6927 8.23635 13.9126 8.23635H16.2778C16.4977 8.23635 16.6756 8.41433 16.6756 8.63422V10.9994ZM16.6756 5.99289C16.6756 6.21278 16.4977 6.39076 16.2778 6.39076H13.9126C13.6927 6.39076 13.5147 6.21278 13.5147 5.99289V3.62768C13.5147 3.40779 13.6927 3.22981 13.9126 3.22981H16.2778C16.4977 3.22981 16.6756 3.40779 16.6756 3.62768V5.99289Z" fill="#575757"/>
</svg>
